# xmcd
#
# Track frame offsets:
#	150
#	24858
#	57011
#	77235
#	115707
#	146023
#
# Disc length: 2273 seconds
#
# Revision: 1
# Processed by: cddbd v1.5.2PL0 Copyright (c) Steve Scherf et al.
# Submitted via: audiograbber 1.83.01
#
DISCID=4208df06
DTITLE=John Mayall and The Bluesbreakers - In The Shadow Of Legends (1)
DYEAR=1982
DGENRE=Blues
TTITLE0=An Eye For An Eye
TTITLE1=Baby, What You Want Me To Do [with Etta James]
TTITLE2=Messin' With The Kid [with Buddy Guy and Junior Wells]
TTITLE3=Dont't Start Me Talkin' [with Buddy Guy and Junior Wells]
TTITLE4=My Time After Awhile
TTITLE5=Shorty George [with Sippie Wallace]
EXTD=at New Jersey's Capitol Theatre
EXTT0=
EXTT1=
EXTT2=
EXTT3=
EXTT4=
EXTT5=
PLAYORDER=
